/* XPM */
static char *close[] = {
/* columns rows colors chars-per-pixel */
"16 16 42 1",
"  c black",
". c #099A09F009B6",
"X c #177E170A177E",
"o c #177E177E177E",
"O c #245E24242441",
"+ c #31EC31CF31CF",
"@ c #35C2435014C8",
"# c #387846ED15AF",
"$ c #3ABB492F1697",
"% c #3C154AFE170A",
"& c #3CFD4BE5177E",
"* c #3DE44DB417F1",
"= c #40264FF61865",
"- c #41815151194C",
"; c #443755621A34",
": c #44D155FC1A81",
"> c #46ED588B1B1B",
", c #47D459731B8F",
"< c #49095AF41C02",
"1 c #4A175C9C1C76",
"2 c #4A8A5D101CEA",
"3 c #4D4060AD1DD1",
"4 c #4DDA60FA1DD1",
"5 c #4FC462EF1EB8",
"6 c #4FB763981EB8",
"7 c #50DD64BE1F2C",
"8 c #515165321F2C",
"9 c #5207668D1F9F",
"0 c #540769002087",
"q c #54A169DD2087",
"w c #55D66B1120FA",
"e c #56496B11216E",
"r c #57306B852255",
"t c #52AC52AC52AC",
"y c #5F525F525F52",
"u c #644A644A644A",
"i c #644A644A64BE",
"p c #64BE644A64BE",
"a c #67E867AE67AE",
"s c #6A9D6A9D6A9D",
"d c #6B856B856B85",
"f c #733373337333",
/* pixels */
"wwwwww-fffffffff",
"wwwwwww------fff",
"wwwwwwwwwwwww-ff",
"wwwwwwwwwwwwww-f",
"wwww++www++www-f",
"wwww,OO0OO,www-f",
"wwww81XXo28www-f",
"wwwww..<..wwww-f",
"0000  121  000=f",
"4000::204:;000%f",
"4504740444444%fs",
"4424442%%%%%%faa",
"222212#ffffffiii",
":,,,:@fyyyyyyyyy",
"04400%ddddddddsd",
"##%##ttttttttttt"
};
