/* XPM */
static char *close_[] = {
/* columns rows colors chars-per-pixel */
"16 16 34 1",
"  c black",
". c #099A09F009B6",
"X c #177E170A177E",
"o c #177E177E177E",
"O c #245E24242441",
"+ c #31EC31CF31CF",
"@ c #484848484848",
"# c #4BE54C594C59",
"$ c #4E9B4E9B4E9B",
"% c #50DD50DD50DD",
"& c #51C551C551C5",
"* c #52AC52AC52AC",
"= c #532053935320",
"- c #55D655D655D6",
"; c #57A457A457A4",
": c #5BEF5BEF5C29",
"> c #5C9C5C295C9C",
", c #5C295C9C5C9C",
"< c #5F525F525F52",
"1 c #60AD60AD60AD",
"2 c #61CE61CE6194",
"3 c #627C627C627C",
"4 c #642464246424",
"5 c #644A644A64BE",
"6 c #64BE644A64BE",
"7 c #67FD67E867A9",
"8 c #694268CF68CF",
"9 c #6ABE6ACF6AD7",
"0 c #6B856B856B85",
"q c #6D2D6D066D2D",
"w c #6E096E3B6DC7",
"e c #70F071227122",
"r c #71FE71FE71FE",
"t c #733373337333",
/* pixels */
"tttttt:ttttttttt",
"ttttttt-:----ttt",
"ttttttttttttt-tt",
"tttttttttttttt:t",
"tttt++ttt++ttt-t",
"tttt1OOtOO1ttt:t",
"ttttq1ooo1qttt-t",
"ttttt..1..tttt-t",
"eeet  181  tet-t",
"qqqq:<8q8<<qqq%t",
"008q888088880%t8",
"7777887$%$%$$t78",
"555555#tttttt555",
"<<<<1@t<<<<<<<<<",
"00000%8q00000000",
"==%=-%===%==%==%"
};
