/* XPM */
static char *max_[] = {
/* columns rows colors chars-per-pixel */
"16 16 27 1",
"  c black",
". c #0AD80AD80AD8",
"X c #0AD80B4B0AD8",
"o c #18D918D918D9",
"O c #18D9194C18D9",
"+ c #26DA26DA26DA",
"@ c #26DA274E26DA",
"# c #52AC52AC52AC",
"$ c #58FF597358FF",
"% c #58FF58FF5973",
"& c #597358FF5973",
"* c #58FF59735973",
"= c #597359735973",
"- c #5F525F525F52",
"; c #620862086208",
": c #644A644A644A",
"> c #64BE644A644A",
", c #644A64BE644A",
"< c #64BE64BE644A",
"1 c #644A644A64BE",
"2 c #64BE64BE64BE",
"3 c #67D267DA67C4",
"4 c #6AA46AC96AD7",
"5 c #6B856B856B85",
"6 c #6E0F6E1E6E2C",
"7 c #70FF711C70FF",
"8 c #733373337333",
/* pixels */
"8888888888888888",
"8888888888888888",
"8888888888888888",
"8888888888888888",
"8888@@@@@@@@8888",
"8888OOOOOOOO8888",
"8888.;;;;;;.8888",
"8888 888888 8888",
"6868        8687",
"6666$$$$$$$$6666",
"4444444444444444",
"3433333333333333",
";3;33;3;<<;3;3;3",
"----------------",
"4444555544554444",
"################"
};
