/* XPM */
static char *maxp[] = {
/* columns rows colors chars-per-pixel */
"16 16 23 1",
"  c black",
". c #0AD80AD80AD8",
"X c #0AD80B4B0AD8",
"o c #18D918D918D9",
"O c #18D9194C18D9",
"+ c #26DA26DA26DA",
"@ c #26DA274E26DA",
"# c #3ABB492F1697",
"$ c #41F5530D194C",
"% c #426952E6194C",
"& c #46ED588B1B1B",
"* c #4A175B411F2C",
"= c #4AA15D101CEA",
"- c #4AE95D841CEA",
"; c #4D4060391DD1",
": c #4D4060AD1DD1",
"> c #4F8262EF1EB8",
", c #4FDC63B71EB8",
"< c #51DC66191FA0",
"1 c #5212668D1F9F",
"2 c #540769212087",
"3 c #547B68CF2087",
"4 c #55D66B1120FA",
/* pixels */
"4444444444444444",
"4444444444444444",
"4444444444444444",
"4444444444444444",
"4444444444444444",
"4444@@@@@@@@4444",
"4444OOOOOOOO4444",
"4444.******.4444",
"2224 444444 2422",
"<<<<        <<<<",
",:,,%%%%$$$$<<::",
"::::::::::;:;:::",
"==;========;====",
"&&&&&&&&&&&&&&&&",
":<<:<::<<:<::<:<",
"################"
};
