/* XPM */
static char *min_[] = {
/* columns rows colors chars-per-pixel */
"16 16 29 1",
"  c black",
". c #26DA274E26DA",
"X c #484848484848",
"o c #4BE54BE54BE5",
"O c #4E9B4E9B4E9B",
"+ c #518B518B518B",
"@ c #52AC52AC52AC",
"# c #532053935393",
"$ c #55D655D655D6",
"% c #57A457A457A4",
"& c #58FF58FF58FF",
"* c #58FF597358FF",
"= c #5973597358FF",
"- c #58FF58FF5973",
"; c #597358FF5973",
": c #58FF59735973",
"> c #5F525F525F52",
", c #644A644A644A",
"< c #644A64BE644A",
"1 c #644A644A64BE",
"2 c #64BE644A64BE",
"3 c #644A64BE64BE",
"4 c #64BE64BE64BE",
"5 c #67A867A867C1",
"6 c #6ADF6AAE6ACF",
"7 c #6B856B856B85",
"8 c #6E3B6E3B6DE8",
"9 c #70F071437111",
"0 c #733373337333",
/* pixels */
"000000000%000000",
"000%%%%%%0000000",
"00%0000000000000",
"0%00000000000000",
"0%00000000000000",
"0%00000000000000",
"0%00000000000000",
"0%000.......0000",
"0%080       0809",
"0#888==%====8888",
"60+6666666666666",
"550OOOOOO5555555",
",,,000000o,,1133",
">>>>>>>>>0X>>>>>",
"6666666666#66666",
"################"
};
