/* XPM */
static char *minp[] = {
/* columns rows colors chars-per-pixel */
"16 16 31 1",
"  c black",
". c #26DA274E26DA",
"X c #35C2435014C8",
"o c #3878467915AF",
"O c #3ABB492F1697",
"+ c #3CC34BAC177E",
"@ c #3DE44DB417F1",
"# c #40264FF61865",
"$ c #41815151194C",
"% c #41F552E6194C",
"& c #426952D3194C",
"* c #46ED588B1B1B",
"= c #4AFE5D101CEA",
"- c #4AB85D841CEA",
"; c #4D4060391DD1",
": c #4D4060AD1DD1",
"> c #4FE362EF1EB8",
", c #4FF663D71EB8",
"< c #5238668D1F9F",
"1 c #540769212087",
"2 c #55D66B1120FA",
"3 c #59E66BF8250B",
"4 c #52AC52AC52AC",
"5 c #5F525F525F52",
"6 c #644A644A644A",
"7 c #644A644A64BE",
"8 c #644A64BE64BE",
"9 c #67AE67AE67E8",
"0 c #6B116A9D6A9D",
"q c #6B856B856B85",
"w c #733373337333",
/* pixels */
"wwwwwwwww$222222",
"www$$$$$$2222222",
"ww$2222222222222",
"w$23222222222222",
"w$22222222222222",
"w$22222222222222",
"w$22222222222222",
"w$22222222222222",
"w#222.......2111",
"w@<<<       <<<<",
"0w@::&$&$$&$<::<",
"99wOOOOOO:::;:::",
"868wwwwwwo======",
"555555555wX*****",
"qq00qqqqqq@:,,:<",
"44444444444OOOOO"
};
