/* XPM */
static char *stick_[] = {
/* columns rows colors chars-per-pixel */
"16 16 16 1",
"  c #3ABB492F1697",
". c #41815151194C",
"X c #4F8263631EB8",
"o c #51D266191FA0",
"O c #540769352087",
"+ c #55D66B1120FA",
"@ c #52AC52AC52AC",
"# c #5F525F525F52",
"$ c #668D73334848",
"% c #644A644A644A",
"& c #644A644A64BE",
"* c #644A64BE64BE",
"= c #67A667B667E8",
"- c #6B116A9D6A9D",
"; c #6B856B856B85",
": c #733373337333",
/* pixels */
"::::::::::::::::",
"::::.......:::::",
":::.+++++++.::::",
"::.+++++$$++.:::",
"::.++++++$$+.:::",
"::.+++++++$+.:::",
"::.+++++++++.:::",
":: +++++++++ :::",
":: OOOOOOOOO :::",
":: OoooOoooo :::",
"=-: XXXXXXX :---",
"===:       :====",
"&&&&:::::::*%=%%",
"################",
";;;;;;;;;;-;----",
"@@@@@@@@@@@@@@@@"
};
