/* XPM */
static char *stick[] = {
/* columns rows colors chars-per-pixel */
"16 16 11 1",
"  c #4E9B4E9B4E9B",
". c #52AC52AC52AC",
"X c #5F525F525F52",
"o c #644A644A644A",
"O c #644A644A64BE",
"+ c #644A64BE64BE",
"@ c #67A667B667E8",
"# c #6ACD6A9D6A9D",
"$ c #6B856B856B85",
"% c #70F0716470F0",
"& c #733373337333",
/* pixels */
"&&&&&&&&&&&&&&&&",
"&&&&       &&&&&",
"&&& &&&&&&& &&&&",
"&& &&&&&&&&& &&&",
"&& &&&&&&&&& &&&",
"&& &&&&&&&&& &&&",
"&& &&&&&&&&& &&&",
"&& &&&&&&&&& &&&",
"&& &&&&&&&&& &&&",
"&& %%%%&%&%% &&&",
"##& ####### &###",
"@@@&       &@@@@",
"ooo+&&&&&&&@oooo",
"XXXXXXXXXXXXXXXX",
"$$##$$####$$$###",
"................"
};
