/* XPM */
static char *toolbarg[] = {
/* columns rows colors chars-per-pixel */
"4 16 12 1",
"  c #3ABB492F1697",
". c #46ED588B1B1B",
"X c #4AFE5D101CEA",
"o c #4AFE5D841CEA",
"O c #4D4060AD1DD1",
"+ c #4F8262EF1EB8",
"@ c #4FDF63C01EB8",
"# c #51C566191FA0",
"$ c #5212668D1F9F",
"% c #5407691C2087",
"& c #547B68CF2087",
"* c #55D66B1120FA",
/* pixels */
"@@@@",
"****",
"****",
"****",
"****",
"****",
"****",
"****",
"%*%%",
"####",
"@@@@",
"@oo@",
"XXXo",
"....",
"@@@@",
"    "
};
