/* XPM */
static char *toolbarw[] = {
/* columns rows colors chars-per-pixel */
"4 16 10 1",
"  c #52AC52AC52AC",
". c #5F525F525F52",
"X c #64BE644A644A",
"o c #64BE64BE64BE",
"O c #67CB67E867CB",
"+ c #6A9D6AD76AF4",
"@ c #6B856B856B85",
"# c #6E1E6E3B6E1E",
"$ c #710D710D710D",
"% c #733373337333",
/* pixels */
"@@@@",
"%%%%",
"%%%%",
"%%%%",
"%%%%",
"%%%%",
"%%%%",
"%%%%",
"#%%#",
"####",
"@@@@",
"OOOO",
"XXXo",
"....",
"@@@@",
"    "
};
